<svg xmlns="http://www.w3.org/2000/svg" viewBox="0 0 319.77 95.1"><defs><style>.cls-1{isolation:isolate;}.cls-2{fill:#36559c;}</style></defs><g id="Ebene_2" data-name="Ebene 2"><g id="Ebene_1-2" data-name="Ebene 1"><g id="Gruppe_2" data-name="Gruppe 2"><g id="WSP.NRW" class="cls-1"><g class="cls-1"><path class="cls-2" d="M154.14,46.48h-7.23l-4.07-15.75c-.15-.57-.4-1.72-.76-3.48s-.58-2.94-.63-3.54c-.08.74-.29,1.93-.62,3.56s-.58,2.8-.75,3.5l-4,15.71h-7.22l-7.65-30h6.25l3.84,16.37q1,4.53,1.45,7.85c.09-.78.27-2,.57-3.62s.57-2.9.83-3.8l4.37-16.8h6l4.36,16.8c.19.75.43,1.9.72,3.44s.51,2.88.66,4c.13-1.06.35-2.39.65-4s.58-2.88.82-3.86l3.82-16.37h6.25Z"/><path class="cls-2" d="M183.25,38.15a7.75,7.75,0,0,1-2.93,6.4c-1.94,1.56-4.66,2.34-8.13,2.34a19.13,19.13,0,0,1-8.49-1.81V39.17a34.21,34.21,0,0,0,5.14,1.91,15.16,15.16,0,0,0,3.84.56,5.47,5.47,0,0,0,3.21-.8A2.74,2.74,0,0,0,177,38.46a2.61,2.61,0,0,0-.49-1.57,5.39,5.39,0,0,0-1.45-1.32,35.19,35.19,0,0,0-3.88-2,18.11,18.11,0,0,1-4.13-2.48,9.32,9.32,0,0,1-2.19-2.77,7.84,7.84,0,0,1-.82-3.69,7.74,7.74,0,0,1,2.7-6.25c1.79-1.52,4.28-2.28,7.45-2.28a17.52,17.52,0,0,1,4.46.56,29.14,29.14,0,0,1,4.44,1.55l-2,4.95a29.49,29.49,0,0,0-4-1.38,12.69,12.69,0,0,0-3.08-.39,4.08,4.08,0,0,0-2.77.84,2.77,2.77,0,0,0-1,2.2,2.68,2.68,0,0,0,.39,1.46,4.5,4.5,0,0,0,1.24,1.22,42.8,42.8,0,0,0,4,2.1,16,16,0,0,1,5.77,4A7.83,7.83,0,0,1,183.25,38.15Z"/><path class="cls-2" d="M209.39,25.84q0,4.85-3,7.41t-8.61,2.56H195V46.48h-6.36v-30h9.58c3.63,0,6.4.79,8.29,2.35S209.39,22.74,209.39,25.84ZM195,30.6h2.09a6.93,6.93,0,0,0,4.39-1.16A4,4,0,0,0,203,26.07a4.13,4.13,0,0,0-1.22-3.3,5.7,5.7,0,0,0-3.82-1.07H195Z"/><path class="cls-2" d="M213.68,43.54a3.45,3.45,0,0,1,.92-2.6,3.74,3.74,0,0,1,2.69-.88,3.63,3.63,0,0,1,2.63.9,4,4,0,0,1,0,5.14,3.57,3.57,0,0,1-2.62.93,3.72,3.72,0,0,1-2.67-.91A3.42,3.42,0,0,1,213.68,43.54Z"/></g><g class="cls-1"><path class="cls-2" d="M250.8,46.48h-4L230.43,21.31h-.16c.22,3,.33,5.66.33,8.12v17h-3.22v-30h3.94l16.34,25.06h.16c0-.37-.08-1.55-.18-3.56s-.13-3.43-.1-4.29V16.49h3.26Z"/><path class="cls-2" d="M262.53,34V46.48H259v-30h8.23q5.5,0,8.15,2.12T278.05,25q0,6-6,8l8.15,13.48H276L268.78,34Zm0-3h4.78q3.69,0,5.41-1.46a5.46,5.46,0,0,0,1.72-4.4,5,5,0,0,0-1.75-4.29q-1.76-1.3-5.63-1.31h-4.53Z"/><path class="cls-2" d="M311.17,46.48h-3.44L301.68,26.4c-.29-.89-.61-2-1-3.37a19.22,19.22,0,0,1-.55-2.44,46,46,0,0,1-1.44,5.93l-5.86,20h-3.45l-8-30h3.69L289.87,35a70.19,70.19,0,0,1,1.43,7.06,51.78,51.78,0,0,1,1.64-7.35l5.37-18.23H302l5.64,18.4a56.71,56.71,0,0,1,1.66,7.18,62,62,0,0,1,1.47-7.1l4.72-18.48h3.69Z"/></g></g><g id="Wirtschafts-Service-Portal.NRW" class="cls-1"><g class="cls-1"><path class="cls-2" d="M132.24,72.13h-2.35L128.58,67c-.05-.18-.13-.56-.25-1.13a9.79,9.79,0,0,1-.2-1.14c0,.24-.1.62-.2,1.15s-.19.9-.25,1.13l-1.31,5.09H124l-2.48-9.71h2l1.25,5.3c.21,1,.37,1.82.47,2.54q0-.37.18-1.17a10.08,10.08,0,0,1,.27-1.23l1.41-5.44h2l1.41,5.44q.09.36.24,1.11t.21,1.29q.06-.51.21-1.29c.1-.52.19-.93.27-1.25l1.23-5.3h2Z"/></g><g class="cls-1"><path class="cls-2" d="M135.46,62.84a.85.85,0,0,1,.23-.65.88.88,0,0,1,.65-.22.87.87,0,0,1,.64.22.89.89,0,0,1,.23.65.91.91,0,0,1-1.52.62A.81.81,0,0,1,135.46,62.84Zm1.65,9.29h-1.56V64.78h1.56Z"/><path class="cls-2" d="M142.8,64.65a3.31,3.31,0,0,1,.77.07l-.15,1.45a3.1,3.1,0,0,0-.69-.08,2,2,0,0,0-1.52.61,2.21,2.21,0,0,0-.58,1.59v3.84h-1.56V64.78h1.22l.21,1.3h.08a2.81,2.81,0,0,1,.95-1A2.24,2.24,0,0,1,142.8,64.65Z"/><path class="cls-2" d="M147.4,71a3.77,3.77,0,0,0,1.14-.18V72a2.86,2.86,0,0,1-.67.19,4.6,4.6,0,0,1-.84.08q-2.22,0-2.22-2.34V66h-1v-.69l1.08-.57.53-1.55h1v1.63h2.09V66h-2.09V69.9a1.1,1.1,0,0,0,.28.83A1,1,0,0,0,147.4,71Z"/><path class="cls-2" d="M154.67,70a1.94,1.94,0,0,1-.78,1.65,3.8,3.8,0,0,1-2.25.57,5.28,5.28,0,0,1-2.36-.45V70.47a5.78,5.78,0,0,0,2.41.59c1,0,1.45-.29,1.45-.87a.71.71,0,0,0-.16-.46,2.34,2.34,0,0,0-.53-.39,9.83,9.83,0,0,0-1-.45,4.56,4.56,0,0,1-1.72-1,1.82,1.82,0,0,1-.45-1.28,1.67,1.67,0,0,1,.76-1.46,3.61,3.61,0,0,1,2.07-.52,5.86,5.86,0,0,1,2.45.52L154,66.35a5.35,5.35,0,0,0-2-.49c-.83,0-1.24.23-1.24.7a.73.73,0,0,0,.32.59,6.94,6.94,0,0,0,1.41.65,6.7,6.7,0,0,1,1.32.65,1.93,1.93,0,0,1,.61.67A2,2,0,0,1,154.67,70Z"/><path class="cls-2" d="M159.05,72.26a3.21,3.21,0,0,1-2.54-1,5,5,0,0,1,0-5.64,3.36,3.36,0,0,1,2.62-1,4.85,4.85,0,0,1,2.09.43l-.47,1.26a4.66,4.66,0,0,0-1.63-.39c-1.27,0-1.91.84-1.91,2.53a3,3,0,0,0,.48,1.86,1.64,1.64,0,0,0,1.39.62,4,4,0,0,0,2-.52V71.8a3,3,0,0,1-.89.35A5.4,5.4,0,0,1,159.05,72.26Z"/><path class="cls-2" d="M169,72.13h-1.57V67.61a2,2,0,0,0-.34-1.27,1.33,1.33,0,0,0-1.09-.42,1.73,1.73,0,0,0-1.44.59,3.22,3.22,0,0,0-.46,2v3.65h-1.56V61.79h1.56v2.63a13.14,13.14,0,0,1-.08,1.35h.1a2.14,2.14,0,0,1,.88-.83,2.93,2.93,0,0,1,1.33-.29A2.37,2.37,0,0,1,169,67.34Z"/><path class="cls-2" d="M175.5,72.13l-.31-1h-.05a3,3,0,0,1-1.07.92,3.42,3.42,0,0,1-1.38.24,2.31,2.31,0,0,1-1.69-.58,2.19,2.19,0,0,1-.61-1.66,1.93,1.93,0,0,1,.84-1.71,4.77,4.77,0,0,1,2.57-.63l1.27,0v-.39a1.51,1.51,0,0,0-.33-1.06,1.35,1.35,0,0,0-1-.35,3.59,3.59,0,0,0-1.08.17,8,8,0,0,0-1,.39l-.5-1.11a5.36,5.36,0,0,1,1.31-.48,5.89,5.89,0,0,1,1.34-.16,3.14,3.14,0,0,1,2.11.61,2.39,2.39,0,0,1,.72,1.92v4.95Zm-2.32-1.07a1.91,1.91,0,0,0,1.36-.47,1.74,1.74,0,0,0,.52-1.33v-.64l-.95,0a3.24,3.24,0,0,0-1.6.37,1.13,1.13,0,0,0-.5,1,1,1,0,0,0,.29.76A1.32,1.32,0,0,0,173.18,71.06Z"/><path class="cls-2" d="M182.21,66h-1.79v6.17h-1.57V66h-1.21v-.73l1.21-.47v-.48a2.66,2.66,0,0,1,.61-1.93,2.5,2.5,0,0,1,1.87-.63A5.1,5.1,0,0,1,183,62l-.42,1.19a3.4,3.4,0,0,0-1.1-.19.89.89,0,0,0-.77.33,1.67,1.67,0,0,0-.24,1v.48h1.79Z"/><path class="cls-2" d="M185.92,71a3.77,3.77,0,0,0,1.14-.18V72a2.77,2.77,0,0,1-.66.19,4.8,4.8,0,0,1-.85.08q-2.22,0-2.22-2.34V66h-1v-.69l1.07-.57.54-1.55h1v1.63H187V66H184.9V69.9a1.1,1.1,0,0,0,.28.83A1,1,0,0,0,185.92,71Z"/><path class="cls-2" d="M193.19,70a1.94,1.94,0,0,1-.78,1.65,3.76,3.76,0,0,1-2.24.57,5.25,5.25,0,0,1-2.36-.45V70.47a5.71,5.71,0,0,0,2.41.59q1.44,0,1.44-.87a.66.66,0,0,0-.16-.46,2.13,2.13,0,0,0-.53-.39,9.83,9.83,0,0,0-1-.45,4.56,4.56,0,0,1-1.72-1,1.82,1.82,0,0,1-.45-1.28,1.7,1.7,0,0,1,.76-1.46,3.61,3.61,0,0,1,2.07-.52,5.83,5.83,0,0,1,2.45.52l-.5,1.18a5.39,5.39,0,0,0-2-.49c-.82,0-1.24.23-1.24.7a.71.71,0,0,0,.33.59,6.51,6.51,0,0,0,1.4.65,6.16,6.16,0,0,1,1.32.65,1.83,1.83,0,0,1,.61.67A1.89,1.89,0,0,1,193.19,70Z"/><path class="cls-2" d="M194,69.15V67.82h3.41v1.33Z"/></g><g class="cls-1"><path class="cls-2" d="M204.55,69.43a2.5,2.5,0,0,1-1,2.07,4.08,4.08,0,0,1-2.63.76,6.18,6.18,0,0,1-2.75-.58V69.76a12.07,12.07,0,0,0,1.66.62,5,5,0,0,0,1.25.18,1.79,1.79,0,0,0,1-.26.88.88,0,0,0,.36-.77.84.84,0,0,0-.16-.51,1.81,1.81,0,0,0-.47-.43,12.43,12.43,0,0,0-1.26-.65,6,6,0,0,1-1.33-.81,2.91,2.91,0,0,1-.71-.89,2.53,2.53,0,0,1-.27-1.2,2.48,2.48,0,0,1,.88-2,3.56,3.56,0,0,1,2.41-.74,5.76,5.76,0,0,1,1.45.18,11.17,11.17,0,0,1,1.43.5l-.66,1.6a9.42,9.42,0,0,0-1.29-.44,3.87,3.87,0,0,0-1-.13,1.33,1.33,0,0,0-.89.27.9.9,0,0,0-.31.71.92.92,0,0,0,.12.48,1.36,1.36,0,0,0,.4.39,12.73,12.73,0,0,0,1.31.68A5.11,5.11,0,0,1,204,67.83,2.51,2.51,0,0,1,204.55,69.43Z"/></g><g class="cls-1"><path class="cls-2" d="M209.14,72.26a3.54,3.54,0,0,1-2.68-1,3.77,3.77,0,0,1-1-2.75,4.16,4.16,0,0,1,.9-2.83,3.09,3.09,0,0,1,2.46-1,3,3,0,0,1,2.3.88A3.39,3.39,0,0,1,212,68v.85H207.1a2.36,2.36,0,0,0,.58,1.64,2,2,0,0,0,1.53.57,5.77,5.77,0,0,0,1.21-.12,6.18,6.18,0,0,0,1.21-.41v1.27a5.11,5.11,0,0,1-1.16.39A7.52,7.52,0,0,1,209.14,72.26Zm-.29-6.43a1.59,1.59,0,0,0-1.19.47,2.23,2.23,0,0,0-.53,1.38h3.33A2.05,2.05,0,0,0,210,66.3,1.5,1.5,0,0,0,208.85,65.83Z"/><path class="cls-2" d="M217.22,64.65a3.46,3.46,0,0,1,.78.07l-.16,1.45a3.1,3.1,0,0,0-.69-.08,2,2,0,0,0-1.51.61,2.22,2.22,0,0,0-.59,1.59v3.84h-1.56V64.78h1.23l.2,1.3H215a2.84,2.84,0,0,1,1-1A2.23,2.23,0,0,1,217.22,64.65Z"/><path class="cls-2" d="M220.76,72.13,218,64.78h1.65l1.49,4.27a8.88,8.88,0,0,1,.47,1.74h0a11.43,11.43,0,0,1,.46-1.74l1.5-4.27h1.66l-2.8,7.35Z"/><path class="cls-2" d="M226,62.84a.79.79,0,0,1,.88-.87.86.86,0,0,1,.64.22.85.85,0,0,1,.23.65.81.81,0,0,1-.23.62.82.82,0,0,1-.64.23.8.8,0,0,1-.88-.85Zm1.65,9.29h-1.56V64.78h1.56Z"/><path class="cls-2" d="M232.57,72.26a3.21,3.21,0,0,1-2.53-1,4.91,4.91,0,0,1,0-5.64,3.34,3.34,0,0,1,2.62-1,4.88,4.88,0,0,1,2.09.43l-.47,1.26a4.66,4.66,0,0,0-1.63-.39c-1.27,0-1.91.84-1.91,2.53a3,3,0,0,0,.48,1.86,1.64,1.64,0,0,0,1.39.62,4,4,0,0,0,2-.52V71.8a3,3,0,0,1-.89.35A5.43,5.43,0,0,1,232.57,72.26Z"/><path class="cls-2" d="M239.28,72.26a3.55,3.55,0,0,1-2.68-1,3.81,3.81,0,0,1-1-2.75,4.16,4.16,0,0,1,.9-2.83,3.09,3.09,0,0,1,2.47-1,3,3,0,0,1,2.29.88,3.35,3.35,0,0,1,.85,2.43v.85h-4.9a2.41,2.41,0,0,0,.58,1.64,2,2,0,0,0,1.53.57,5.87,5.87,0,0,0,1.22-.12,6.33,6.33,0,0,0,1.2-.41v1.27a5,5,0,0,1-1.15.39A7.64,7.64,0,0,1,239.28,72.26ZM239,65.83a1.6,1.6,0,0,0-1.2.47,2.29,2.29,0,0,0-.53,1.38h3.33a2,2,0,0,0-.44-1.38A1.49,1.49,0,0,0,239,65.83Z"/><path class="cls-2" d="M243,69.15V67.82h3.41v1.33Z"/></g><g class="cls-1"><path class="cls-2" d="M254.55,65.45a3,3,0,0,1-1,2.39,4.19,4.19,0,0,1-2.79.83h-.88v3.46h-2.06V62.42H251a4.13,4.13,0,0,1,2.69.76A2.78,2.78,0,0,1,254.55,65.45ZM249.91,67h.67a2.23,2.23,0,0,0,1.42-.38,1.3,1.3,0,0,0,.48-1.09,1.37,1.37,0,0,0-.4-1.07,1.84,1.84,0,0,0-1.24-.34h-.93Z"/></g><g class="cls-1"><path class="cls-2" d="M262.52,68.44a4,4,0,0,1-.92,2.81,3.31,3.31,0,0,1-2.57,1,3.52,3.52,0,0,1-1.82-.47A3,3,0,0,1,256,70.46a4.45,4.45,0,0,1-.43-2,4,4,0,0,1,.92-2.79,3.31,3.31,0,0,1,2.58-1,3.21,3.21,0,0,1,2.52,1A3.94,3.94,0,0,1,262.52,68.44Zm-5.34,0c0,1.7.62,2.54,1.88,2.54s1.86-.84,1.86-2.54-.63-2.52-1.88-2.52a1.58,1.58,0,0,0-1.42.66A3.32,3.32,0,0,0,257.18,68.44Z"/><path class="cls-2" d="M267.77,64.65a3.46,3.46,0,0,1,.78.07l-.16,1.45a3.1,3.1,0,0,0-.69-.08,2,2,0,0,0-1.51.61,2.21,2.21,0,0,0-.58,1.59v3.84H264V64.78h1.23l.2,1.3h.08a2.84,2.84,0,0,1,1-1A2.23,2.23,0,0,1,267.77,64.65Z"/><path class="cls-2" d="M272.37,71a3.77,3.77,0,0,0,1.14-.18V72a2.77,2.77,0,0,1-.66.19,4.71,4.71,0,0,1-.85.08q-2.22,0-2.22-2.34V66h-1v-.69l1.08-.57.53-1.55h1v1.63h2.09V66h-2.09V69.9a1.1,1.1,0,0,0,.28.83A1,1,0,0,0,272.37,71Z"/><path class="cls-2" d="M279.31,72.13l-.32-1h-.05a3,3,0,0,1-1.07.92,3.42,3.42,0,0,1-1.38.24,2.34,2.34,0,0,1-1.69-.58,2.19,2.19,0,0,1-.61-1.66,1.91,1.91,0,0,1,.85-1.71,4.77,4.77,0,0,1,2.57-.63l1.26,0v-.39a1.51,1.51,0,0,0-.33-1.06,1.31,1.31,0,0,0-1-.35,3.6,3.6,0,0,0-1.09.17,8.48,8.48,0,0,0-1,.39l-.51-1.11a5.52,5.52,0,0,1,1.31-.48,5.89,5.89,0,0,1,1.34-.16,3.17,3.17,0,0,1,2.12.61,2.42,2.42,0,0,1,.71,1.92v4.95ZM277,71.06a1.93,1.93,0,0,0,1.37-.47,1.73,1.73,0,0,0,.51-1.33v-.64l-.94,0a3.28,3.28,0,0,0-1.61.37,1.13,1.13,0,0,0-.5,1,1,1,0,0,0,.3.76A1.27,1.27,0,0,0,277,71.06Z"/><path class="cls-2" d="M283.89,72.13h-1.56V61.79h1.56Z"/><path class="cls-2" d="M285.62,71.3a1,1,0,0,1,.25-.75,1,1,0,0,1,.73-.26.94.94,0,0,1,.73.27,1.18,1.18,0,0,1,0,1.48.92.92,0,0,1-.73.28,1,1,0,0,1-.73-.27A1,1,0,0,1,285.62,71.3Z"/><path class="cls-2" d="M297.57,72.13h-1.95l-4.77-7.74h-.06l0,.43c.06.83.09,1.58.09,2.26v5h-1.44V62.42h1.93l4.76,7.7h0c0-.11,0-.48-.06-1.12s0-1.14,0-1.5V62.42h1.46Z"/><path class="cls-2" d="M301.45,68.25v3.88h-1.59V62.42h2.74a4.48,4.48,0,0,1,2.78.7,2.52,2.52,0,0,1,.91,2.13,2.65,2.65,0,0,1-1.89,2.58l2.74,4.3h-1.8L303,68.25Zm0-1.32h1.1a2.51,2.51,0,0,0,1.61-.41,1.49,1.49,0,0,0,.49-1.22,1.33,1.33,0,0,0-.53-1.18,3,3,0,0,0-1.62-.36h-1.05Z"/><path class="cls-2" d="M317.24,72.13h-1.73l-1.64-5.79c-.08-.26-.16-.62-.27-1.1a9.07,9.07,0,0,1-.19-1c-.05.28-.12.65-.22,1.1s-.18.79-.25,1l-1.61,5.77h-1.72l-1.26-4.86-1.27-4.85h1.62l1.39,5.66c.21.9.37,1.71.46,2.4.05-.38.12-.8.22-1.26s.19-.84.27-1.13l1.58-5.67h1.57l1.62,5.7a21.4,21.4,0,0,1,.49,2.36,18.48,18.48,0,0,1,.48-2.42l1.38-5.64h1.61Z"/></g></g></g><g id="Ebene_2-2" data-name="Ebene 2"><g id="Ebene_1-3" data-name="Ebene 1"><path id="Pfad_650" data-name="Pfad 650" class="cls-2" d="M13,94.64h-.19L12.43,94l0-.13-.18-.33.23-.24-.3.08.08-.15-.1-.1-.12-.2V92.7l.07-.13L12,92.4l.74-.23.15.33.12,0-.2.32.19.07v.19l0,.06V29.57l-.12.06-.16-.1.07-.12-.06-.23L12.68,29l-.31-.14-.4-.07-.67.07-.21-.81-.38-.21-.09-.06-.18,0-.16.06-.17.22L9.71,28l-.13,0-.19-.07L8.88,28l-.47-.28-.35-.37V42.72l.06.06.32.57v.45l0,.55.18.32.08.42v.26l-.11.57v.35h-.2v.53l-.25,1.47.12,0,.45,0-.37.47.26,1,.06.23-.6.52V81.82l0,0,.44,0,.26-.06.24.14v.23l-.2.34-.42.34.06.23-.27.47-.16-.06v3.89l.35-.21.12.17.16,0,.22-.21.16.1.16,0,.09.19.38,0,.32-.14.19.2.18.13.22.06.09.15.48,0-.3.25v.15l-.06.13.11.32L10.8,89l.24.23.23.07.14.1.23-.08.12.22.05.42-.05.42-.25.5.08.45-.17.38-.2.22v.19l-.3.21-.1.23.27.29.22.14.22.41.47.44.33.33,0,.26.18.1-.07.54.28,0,.28.07v-.19L13,94.74Z"/><path id="Pfad_651" data-name="Pfad 651" class="cls-2" d="M8.05,27.2l.2,0V27l-.14-.07-.06-.05Z"/><path id="Pfad_652" data-name="Pfad 652" class="cls-2" d="M4.23,56l.09,1.61.23.51.17,0V54.75h0L4.35,55l.27.71.09.2H4.3Z"/><path id="Pfad_653" data-name="Pfad 653" class="cls-2" d="M1.67,30.08l0,.2.23,0,.24.16.31.4,0,.13-.1.22,0,.16h.14l.26.13-.16.19,0,.19.21.17,0,.15-.33.28-.68.43-.05.31.1.17h.8l.24,0,.23.2.77.48.06.22.25.08-.06.14H3.83l-.2.19,0,.32.07.13.06.26-.1.15.08.23-.07.25.18.24.84.37v-8.4l0,.05-.15,0,0,.2-.52.36L4,29l-.06-.1L3.63,29l-.1.16-.32.25-.46.08-.4-.11-.25-.2-.49.56L2,30Z"/><path id="Pfad_654" data-name="Pfad 654" class="cls-2" d="M4.72,59.77l-.09.33H4.44v.09l-.1.12-.16.07-.27.06-.15.24,0,.07-.13.16-.46.4-.42.15-.09-.07L2,61.92l-.14.28-.19.06,0,.06,0,.06-.1.16-.23.25-.08.57,0,.13L1,63.64l0,.13L1,63.89l-.13-.06-.34,0L.16,63.3,0,62.66v3.58L.31,66l.57-.11L.94,66l.28.27.35-.16.09.07.93-.06.26,0-.39.94-.12.06-.1.1.28.2-.07.22.08.58.75.28.13-.06.13.13,0,.22.39,0,.09-.1.33.08.12.1,0,.22-.06.16-.12.31L4.08,70l0,.39.28.4,0,.29,0,.16-.26.34L4,72.19l-.44-.27-.07-.13-1,.42-.09.51.2.3v.58l-.6.51-.43-.34-.21.08-.15.37.37.21.22.23.85.7-.25.38,0,.47.44.36.07.32-.19.23v.28l.12.08,0,.2.17,0,0-.37.73.33h.48l.28-.08.26,0Z"/><path id="Pfad_655" data-name="Pfad 655" class="cls-2" d="M56.61,15.44v.67h0V16l.06,0,.07.1.15-.06.07-.13-.28-.23.07-.13Z"/><path id="Pfad_656" data-name="Pfad 656" class="cls-2" d="M64.35,4.23h.09l.24.2v.1l.08.06v.33l-.09.15,0,.13.21.13-.31.08.28.3.56.09.37.33,1,.29.12.1.06.15.85.5.06.2H68l-.08.2.27.71.12.51.15.2,0,.32.25.07-.15.45h-.12l0,.12.06.13-.07.23.2,1.16-.17.38.12.1v.22h.09l0,.16-.2.19,0,.32.06.28-.22.19-.08.32-.19.15.18.2.09.29.34.3.25,0,.45.11,0,0V1l-.26.25L69,1.49l-.28-.07-.36.34,0,.77-.11.54-.66.59-.11-.16-.24.11,0,.16L66.9,3.5l-.42.15v.13l-.38,0-.23.08-.22-.12-.14-.27-.42-.07-.22.12-.22-.1-.15-.17-.1.09-.09-.13-.17.15.24.46Z"/><path id="Pfad_657" data-name="Pfad 657" class="cls-2" d="M21.09,26.31l-.95.45-.1.12-.26,0-.44.18-.71.2-.48.31-.06.13H18l-.08-.15-.22,0-.4.37-.38.08-.39.25,0,.19-.13,0V93.26l.36-.06.2-.16.1-.16.29,0,.1-.16.16-.12L18,92.4l.07.29-.17.09L18,93l.32-.06.26,0,.06.13,0,.19-.21.54.13.16.34.31.1-.1.25,0,.1-.13.1-.22,0-.52.35-.15.37.4.12.17.06.29.21.3,0,.41.13-.16.13-.15.29-.1Z"/><path id="Pfad_658" data-name="Pfad 658" class="cls-2" d="M45.23,6.53v-.4l-.14.35Z"/><path id="Pfad_659" data-name="Pfad 659" class="cls-2" d="M45.23,3.63l-.17.6-.15,0,.33.15Z"/><path id="Pfad_660" data-name="Pfad 660" class="cls-2" d="M76.33,56.89l-.08-.38,0-.22-.15-.3V55.8L76,55.54l.18-.6-.35-.2.07-.1-.06-.16-.67,0L75,54.4l-.17.21-.22.19h-.26l-.31.08-.1.1-.58.07h-.09l-.08.38-.34.28-.15-.05V62h.1l.34,0,.22.07.4.11.35,0,.27-.19.25-.18.19-.19.17-.05h.54l.25-.09,0-.22-.19-.07-.26,0,0-.3-.12,0v-.07L75,60.76v-.13l.07-.06,0-.19.33-.37.13-.22.19,0,.42-.33,0-.2.29-.18v-.16l.25-.22-.21-.17,0-.38v-.36l.16-.15.23-.08L77,57.3l-.21-.1Z"/><path id="Pfad_661" data-name="Pfad 661" class="cls-2" d="M77.42,5.8l-.36-.08-.36.14L76,6.23l-.22-.15,0-.19-.29-.25-.19.21-.11.26-.21-.18L75,5.74,75,5.33l-.15-.23L75,4.66l.19-.09V4.32l-.28-.27-.08-.3,0-.51L75,3.06l0-.7L74.68,2l.12-.67L74.68,1l-.19,0-.22-.2.12-.06,0-.15L74,.62,73.8.4,73.43,0,72.7.4V52.33l.14-.15H73l.07-.12,0-.26.22-.12.27-.21.4.16,0-.25L74.1,51l.32-.07.07-.12.2-.18-.15-.39.64-.24.13.1.18.1.22-.05.28.1.24-.15.15,0,.17-.09.22,0,.32-.31.32-.07Z"/><path id="Pfad_662" data-name="Pfad 662" class="cls-2" d="M81.7,48.49l.2-.07-.15-.29,0-.34-.34-.15-.42,0,0-.38.06,0,0-.1V47l-.09-.1-.09-.16,0-.26-.12-.14v3H81l.19.06.41.12v-.2l.13-.19-.09-.19,0-.13Z"/><path id="Pfad_663" data-name="Pfad 663" class="cls-2" d="M85.19,17.08l-.06,0L85,16.81l-.33.05,0-.38-.23.05H84.2l0,.1-.26.15v.13h-.21l-.49.31-.15-.14v-.15l.14-.35v-.35l-.09,0L83.1,16l.1-.35.16,0v-.16l-.29,0L83,15.14,82.81,15l0-.19-.1.09-.1-.1v-.16l-.22-.13.13-.09.16.07.09.15.26.07.13-.21.15.13-.07.19.12.16.45,0H84l-.06-.29.14-.24-.15-.36.1-.2-.15-.29-.15-.13v-.26l.12-.06.22.24.32-.12L84.7,13l.07-.22-.6-.17-.49-.53-.07.09-.21-.1L82.9,12l-.06-.16-.25-.14-.54-.12L82,11.43l.17-.22v-.16L82.1,11l0,.13h-.19l-.06-.22.45-.18.15-.19-.11-.35.07-.06.11-.42-.09-.19V9.33l.22-.18,0-.32h.22L83,8.58l.22,0,.16-.27,0-.39.33.2.52.09V7.92l.31-.06.17-.28.16-.06V7.33L85,7l.17-.17V6.27l0-.08,0-.05V3.79l-.08-.06.07-.24v-2l-.11-.13-.16.09-.45-.13-.12.09-.41-.15-.24.47.06.26-.17.16-.15,0-.23.15,0,.32L83,2.7,83,3,83,3.11h-.42l-.19.26L82,3.44l.24.25-.2.29.16.26-.2.18-.32.06-.16.34L81.27,5l0,.25-.29.22.07.13-.25,0V45.07l.48-.12.29-.21.15-.12.72-.24,1-.38.31-.22.1.13,0,.25.4.37h.5l.07.15.18,0,0-.09.18-.09Z"/><path id="Pfad_664" data-name="Pfad 664" class="cls-2" d="M69.19,67.46l.18-.18V15.81h-.17l-.13.32-.52.24-.21-.07-.49.34-.13.15-.29.18-.24.19L67,17.4l0,.32.12.16,0,.2-.14.16-.41.14-.45-.07-.09-.1L66,18l-.13,0-.28-.1-.12-.17-.5-.08-.27.15V72.44h.4l.1-.1.31-.09.22,0,.23,0,.18.2.3-.18-.1-.2.14-.23.35,0,.13-.23-.06-.06.07-.16-.07-.26.27-.12.22-.22v-.12l.46-.31.3-.35.64.07,0-.17h0l-.12-.32,0-.1-.14-.13v-.25L68.5,69l.07-.1.33-.35-.1-.06.08-.32L68.8,68l0-.06.16-.15h.38v-.07l-.13-.1Z"/><path id="Pfad_665" data-name="Pfad 665" class="cls-2" d="M92.24,39.53l.44-.21H93l0-.26L93.2,39h0v-.91l0,0-.13,0,.12-.63,0,0V34.24l-.14-.06L93,33.89l.22-.21V28.85h-.15l-.46-.15-.49.28-.24.12.1-1,.1-.09L92,27.75l.1-.13v-.25L92,27v-.22l-.23-.23,0-.13h-.22l-.15-.06-.1-.17-.16,0-.34.14-.16-.1-.1.07L90.44,26l-.12,0-.16-.3,0-.13,0-.15.12,0,0-.16-.25,0,.1-.32,0-.12.27-.09.09,0v-.16l-.17-.06v-.17l-.12-.16.06-.06-.1-.13-.15.13v-.23l-.23-.07-.48.14,0-.1-.41.19-.19,0-.13.21V46.16l.13.05.35,0,0-.87.17-.14.08-.23.34,0,0-.17.07-.12.63-.07.11-.35.16-.22.36-.18.57,0,.16-.41-.14-.32,0-.27.13-.18,0-.51L92,42l.4-.53.07-.32.16-.22.23-.11.1-.23.13-.06,0-.13-.45-.14L92.47,40l-.33-.34v-.09Z"/><path id="Pfad_666" data-name="Pfad 666" class="cls-2" d="M29.14,14.08l-.06.09-.13.15v.19l-.17.23-.13.19L28.2,15H28l-.35.06-.16.12v.16l-.65.58-.22,1.12-.16.12-.33.3-.9.08-.75,0v4.89l.39.34-.09.12.5.09.08.35v.38l.06.2-.11.35-.38,0,0,.11-.38.11,0,.44V89.15l0,0,.16.24.37.33.1-.2.22,0,.07-.21.26-.22.58-.12-.07-.1.1-.14-.09-.14.13-.25L26.15,88l.2-.36-.18-.26-.29,0,.26-.45-.38-.1-.05-.29.1-.1.44-.07-.1.15.26.11.42-.31.25-.08L27,85.86l-.09-.07-.09-.42.17-.18.44-.25.19,0,.13.1,0,.2.29,0,.13,0,.1-.07.07-.25.16-.09.25.07.13,0,.24-.25Z"/><path id="Pfad_667" data-name="Pfad 667" class="cls-2" d="M61.32,19.92h-.24l-.25-.07-.13,0-.21-.13-.62.17-.1.15-.86.49h0l-.14-.26-.6-.22-.32,0,0,.17-.51,0-.15-.17-.46.54-.08,0V77.38l0,0,.09.14.06.06.15.14.1.15.06,0,.12.1h0l.18.2.08.6-.11.66.61.1.13-.2.16,0v-.1l.1-.12.13-.07.09.16h.45l.21.16.36.53V80l.17,0v-.29l.13-.18.12.06.05.07.12,0,.23-.5v-.31l.27-.51,0,0,.1-.12v-.1l.06-.06V77.9l0-.23v-.09l0,0-.06.07,0-.09.14-.07-.19-.15-.1,0v-.2L60.45,77l-.14,0,.17-.28-.16-.1-.06.06-.06-.07-.07.07,0-.07-.07-.07-.09,0,.1-.14.07-.06-.06-.06-.07-.1-.12-.07V76l-.07-.07,0,0-.07-.07,0-.16.15,0-.22-.08.13,0H60l.14-.06.15-.19.17-.09.07,0,.29-.22.15-.18.15-.38v-.06l.16-.1V74.1l.07-.09Z"/><path id="Pfad_668" data-name="Pfad 668" class="cls-2" d="M45.23,77.27l0,0,0-.06v-.12l-.11-.17.11-.12V6.7h0l-.09,0,0,0-.1-.1-.32.32.15,0-.12.12-.13,0-.16-.08L44.32,7l-.06-.1H44l-.19.13-.07.12-.13.06-.14.09-.14,0-.66.56-.48.24-.65.36-.16.41-.15.38-.06.06-.32.05-.19,0-.13.06V78.82h.43l.09-.12.39-.25.67,0,.16-.18.22,0,.27-.29.38.08h.09l-.06-.15.46-.34.48-.25.19.14h.12l.47.2.29-.13.08-.15Z"/><path id="Pfad_669" data-name="Pfad 669" class="cls-2" d="M37.19,11.45l-1.47,0-1.16-.08-.48,0-.9.22-.07.2-.16,0-.1.16v.22l-.1.12-.15.06h-.12V83.24l.37.21.19,0,0-.38.17-.24.24.1h.24l0-.29.26-.15.15-.07,0-.5.1-.06v-.25l.11-.21.34-.07v0l0,.13,0,1h.12v-.12l.64-.08.34,0,.13.16.2-.15.15,0,.71-.21.11-.1Z"/><path id="Pfad_670" data-name="Pfad 670" class="cls-2" d="M53.28,19.38h0V6.62l-.38,0-.19.12L52.2,7l-.79-.1-.23,0-.56-.34-.31-.17L50,6.22l-1-.54-.28,0-.22-1v68.8l0-.16.16-.09.23-.35.18.16.26,0,.34.13.1,0,0-.17-.21-.07.13-.19.22-.09-.14-.23h-.1l-.07-.16-.18-.07.1-.18.07-.19.1-.13V71.5l-.13-.29V71l.1-.07.1-.28,0-.1-.23-.14-.12,0,0-.32-.3-.13v-.1l.19-.09.22,0,.72-.46.25-.44.11,0,.09,0h0l.47.15.06-.07.16.3.24.2.23,0,.1.06.12-.12.07,0,.08.23-.19.28-.14.34-.13.13.09.2-.1.28-.07,0-.13.22.06.16,0,.22,0,0,.51.18.38,0h.22l.18.14h.13l.13.16,0,.2h0Z"/></g></g></g></g></svg>