<?xml version="1.0" encoding="utf-8"?>
<!-- Generator: Adobe Illustrator 25.3.1, SVG Export Plug-In . SVG Version: 6.00 Build 0)  -->
<svg version="1.1" id="Ebene_1" xmlns="http://www.w3.org/2000/svg" xmlns:xlink="http://www.w3.org/1999/xlink" x="0px" y="0px"
	 viewBox="0 0 624.8 109.4" style="enable-background:new 0 0 624.8 109.4;" xml:space="preserve">
<style type="text/css">
	.st0{fill:#D2DDEA;}
	.st1{fill:none;stroke:#1C3661;stroke-width:0.8825;stroke-miterlimit:10;}
	.st2{fill:#DADADA;}
	.st3{fill:#1C3661;}
	.st4{fill:#FFFFFF;}
	.st5{fill:none;stroke:#1B365F;stroke-width:0.8825;stroke-miterlimit:10;}
	.st6{fill:#CCD7E6;}
	.st7{fill:none;stroke:#FFFFFF;stroke-width:1.765;stroke-miterlimit:10;}
</style>
<g>
	<path class="st0" d="M41.7,109.4c0-0.7-1.3-3.6,1.5-5.6c0,0-6.5,0.1-3.9-7.6c2.5-7.5,7.6-3.6,7.6-3.6s-1.9-6,5.8-6
		c7.7,0,5.6,6,5.6,6s5.1-3.8,7.8,3.6c2.7,7.4-3.8,7.7-3.8,7.7s1.9,2,1.6,5.5"/>
	<path class="st1" d="M41.7,109.4c0-0.7-1.3-3.6,1.5-5.6c0,0-6.5,0.1-3.9-7.6c2.5-7.5,7.6-3.6,7.6-3.6s-1.9-6,5.8-6
		c7.7,0,5.6,6,5.6,6s5.1-3.8,7.8,3.6c2.7,7.4-3.8,7.7-3.8,7.7s1.9,2,1.6,5.5"/>
	<polygon class="st2" points="78.7,40 73.9,44.3 69,39.6 63.9,46.1 65.8,51.1 62,55.8 59.4,44.5 67.9,32.7 78.7,40 	"/>
	<path class="st3" d="M109.3,108.6c12.2-34.8,11.6-73.5-0.7-108.3h109.2l0,109.1H109.3V108.6L109.3,108.6z"/>
	<path class="st4" d="M202.8,19.8c0.9-1,0.8-1.8-0.2-1.8h-4.8c-1,0-1.5-0.1-3.1,1.5l-13.5,14.7l0-14.3c0-1-0.8-1.8-1.8-1.8h-3.3
		c-1,0-1.8,0.8-1.8,1.8l0,32.6c0,1,0.8,1.8,1.8,1.8h3.3c1,0,1.8-0.8,1.8-1.8l0-8.5l6-6.5l9.3,15c0.6,1,1.5,1.8,2.4,1.8h5
		c1,0,1.3-0.8,0.7-1.8l-12.8-20.1L202.8,19.8L202.8,19.8L202.8,19.8z"/>
	<path class="st4" d="M123.5,52.4c0,1,0.8,1.8,1.8,1.8h3.6c1,0,1.8-0.8,1.8-1.8l0-32.6c0-1-0.8-1.8-1.8-1.8h-3.6
		c-1,0-1.8,0.8-1.8,1.8L123.5,52.4L123.5,52.4L123.5,52.4z"/>
	<path class="st4" d="M159.7,19.8c0-1,0.8-1.8,1.8-1.8h3.6c1,0,1.8,0.8,1.8,1.8l0,32.6c0,1-0.8,1.8-1.8,1.8h-3.5
		c-1,0-1.8-0.8-1.8-1.8l0-13.4h-14.4l0,13.4c0,1-0.8,1.8-1.8,1.8H140c-1,0-1.8-0.8-1.8-1.8l0-32.6c0-1,0.8-1.8,1.8-1.8h3.6
		c1,0,1.8,0.8,1.8,1.8l0,13.1h14.4L159.7,19.8L159.7,19.8L159.7,19.8z"/>
	<path class="st4" d="M42.3,86.6c0.8-0.8,3.8,0.5,3.7,0.6c-0.6,0.6-0.9,2.7-0.9,2.7s-2.5-0.2-3.2,0.2C41.6,90.4,41.5,87.3,42.3,86.6
		L42.3,86.6L42.3,86.6z"/>
	<path class="st0" d="M42.3,86.6c0.8-0.8,3.8,0.5,3.7,0.6c-0.6,0.6-0.9,2.7-0.9,2.7s-2.5-0.2-3.2,0.2C41.6,90.4,41.5,87.3,42.3,86.6
		L42.3,86.6L42.3,86.6z"/>
	<path class="st1" d="M42.3,86.6c0.8-0.8,3.8,0.5,3.7,0.6c-0.6,0.6-0.9,2.7-0.9,2.7s-2.5-0.2-3.2,0.2C41.6,90.4,41.5,87.3,42.3,86.6
		L42.3,86.6L42.3,86.6z"/>
	<path class="st0" d="M62.9,86.6c-0.8-0.8-3.8,0.5-3.7,0.6c0.6,0.6,1,2.7,1,2.7s2.5-0.3,3.1,0.2C63.6,90.4,63.7,87.4,62.9,86.6
		L62.9,86.6L62.9,86.6z"/>
	<path class="st1" d="M62.9,86.6c-0.8-0.8-3.8,0.5-3.7,0.6c0.6,0.6,1,2.7,1,2.7s2.5-0.3,3.1,0.2C63.6,90.4,63.7,87.4,62.9,86.6
		L62.9,86.6L62.9,86.6z"/>
	<path class="st4" d="M36.3,106.3c-0.6-0.9,1.3-3.6,1.3-3.6c0.5,0.7,2.5,1.7,2.5,1.7s-0.8,2.3-0.5,3.1
		C39.9,107.8,36.9,107.2,36.3,106.3L36.3,106.3L36.3,106.3z"/>
	<path class="st0" d="M35.6,106.5c-0.6-0.9,1.3-3.6,1.3-3.6c0.5,0.7,2.5,1.7,2.5,1.7s-0.8,2.3-0.5,3.1
		C39.1,108.1,36.2,107.5,35.6,106.5L35.6,106.5L35.6,106.5z"/>
	<path class="st1" d="M35.6,106.5c-0.6-0.9,1.3-3.6,1.3-3.6c0.5,0.7,2.5,1.7,2.5,1.7s-0.8,2.3-0.5,3.1
		C39.1,108.1,36.2,107.5,35.6,106.5L35.6,106.5L35.6,106.5z"/>
	<path class="st0" d="M69.2,107c0.6-0.9-1.3-3.6-1.3-3.6c-0.5,0.7-2.7,1.6-2.7,1.6s1,2.3,0.7,3.1C65.7,108.5,68.6,107.9,69.2,107
		L69.2,107L69.2,107z"/>
	<path class="st1" d="M69.2,107c0.6-0.9-1.3-3.6-1.3-3.6c-0.5,0.7-2.7,1.6-2.7,1.6s1,2.3,0.7,3.1C65.7,108.5,68.6,107.9,69.2,107
		L69.2,107L69.2,107z"/>
	<path class="st4" d="M52.7,107.2c3.6,0,6.5-2.9,6.5-6.5c0-3.6-2.9-6.5-6.5-6.5c-3.6,0-6.5,2.9-6.5,6.5
		C46.2,104.3,49.1,107.2,52.7,107.2L52.7,107.2L52.7,107.2z"/>
	<path class="st5" d="M52.7,107.2c3.6,0,6.5-2.9,6.5-6.5c0-3.6-2.9-6.5-6.5-6.5c-3.6,0-6.5,2.9-6.5,6.5
		C46.2,104.3,49.1,107.2,52.7,107.2L52.7,107.2L52.7,107.2z"/>
	<path class="st0" d="M52.7,105c2.4,0,4.3-1.9,4.3-4.3c0-2.4-1.9-4.3-4.3-4.3c-2.4,0-4.3,1.9-4.3,4.3C48.4,103.1,50.3,105,52.7,105
		L52.7,105L52.7,105z"/>
	<path class="st5" d="M52.7,105c2.4,0,4.3-1.9,4.3-4.3c0-2.4-1.9-4.3-4.3-4.3c-2.4,0-4.3,1.9-4.3,4.3C48.4,103.1,50.3,105,52.7,105
		L52.7,105L52.7,105z"/>
	<path class="st6" d="M55.6,0c0,60.5,6.3,87.4,25.5,100.2l9.3-4l0-19.1l5.3,5.3l0,20.3l-10.2,0.1c5.8,2.9,12.5,4.8,20.4,6.3h1.3
		l0-7.8l-7.5-10l-1.8-9.4L81,64.5L77,58.6l-3.8,0l0,7.7l4,2.4l0.8,7.1l-9.6-6.1l0-13.6l7.5-5.3l0-5.1l15.7-13.2l4.7-7.3L92,25.5
		l-10.7,4.9l-6.2-7L88,14.1l3.3-6.1l1.9,0l0.9,3l6.6-0.4l6.3,3.3l6.4,9.1l-5,0.5l5.7,9.4l-7-1l3.9,8.4l-3.3,1.2l-4.8,1.2l-2.7,6l0,8
		L111,67.8l4.6,5.7l1.3,4.8c3.8-26.1,1.2-52.8-7.6-78 M0,57.7V58C4.9,47.6,31.7,33.1,40.6,0l0,0L0,0v0.5 M-0.4,108.4v0.7l0.5-0.2
		c20.4-6.3,49.6-0.5,53.6-87C50.7,31.7,20.8,44-0.4,108.4L-0.4,108.4L-0.4,108.4z"/>
	<polygon class="st4" points="78.7,41.6 75.5,44.5 70.4,39 65.1,46.2 67.2,51.7 63.2,56.8 60.1,44.4 69.5,31.5 79.5,40.8 78.7,41.6 
			"/>
	<path class="st1" d="M55.7,0c0,60.1,6.3,87.1,25.5,99.7l9.3-4l0-18.9l5.3,5.3l0,20.2l-10.1,0.1c5.7,2.9,12.5,5.2,20.3,6.6h1.3
		l-0.1-8.1l-7.4-9.9l-1.8-9.4l-17-17.3l-3.9-5.8l-3.8,0l0,7.6l3.9,2.4l0.8,7l-9.6-6l0-13.5l7.5-5.2l0-5l15.5-13.1l4.6-7.2L92,25.6
		l-10.7,4.9l-6.2-7L88,14.3l3.3-6l1.9,0l0.9,3l6.5-0.4l6.3,3.3l6.3,9l-4.9,0.5l5.7,9.4l-7-1l3.9,8.4l-3.2,1.2l-4.8,1.2l-2.6,6l0,8
		l10.6,10.7l4.5,5.6l1.8,5.2 M0.4,57.5v0.4C5.3,47.5,32.1,33.2,40.9,0.3h0h-0.4 M0.2,107.8l-0.4,0.8l1-0.3C21,102.1,50,107.9,54,22
		C51.3,30.8,21.7,42.7,0.2,107.8L0.2,107.8L0.2,107.8z M78.8,41.3l-3.4,3.2l-5-5.4l-5.1,7l2,5.5l-4.1,5.1l-2.8-12.4l9-13.4l10,9.8
		L78.8,41.3L78.8,41.3z"/>
	<path class="st0" d="M0,0.2"/>
	<path class="st7" d="M0,0.2"/>
	<polygon points="235.5,32.5 237.6,32.5 237.6,17.9 235.5,17.9 235.5,32.5 	"/>
	<polygon points="241,32.5 243.1,32.5 243.1,25.8 248.8,25.8 248.8,32.5 251,32.5 251,17.9 248.8,17.9 248.8,24.1 243.1,24.1 
		243.1,17.9 241,17.9 241,32.5 	"/>
	<polygon points="254.3,32.5 256.4,32.5 256.4,25.5 256.5,25.5 261.8,32.5 264.4,32.5 258.6,24.9 264,17.9 261.4,17.9 256.5,24.4 
		256.4,24.4 256.4,17.9 254.3,17.9 254.3,32.5 	"/>
	<polygon points="272.3,32.5 274.2,32.5 274.2,20.8 274.3,20.8 280.2,32.5 282.7,32.5 282.7,17.9 280.8,17.9 280.8,29.4 280.7,29.4 
		275,17.9 272.3,17.9 272.3,32.5 	"/>
	<path d="M286,32.5h2.1v-6.3h1.2c2,0,2.3,1,2.9,3l0.9,3.2h1.9l-0.9-4.1c-0.3-1.5-0.5-2.8-2.5-3.2v0c1.5-0.4,2.9-1.2,2.9-3.4
		c0-2.9-2-3.8-4.3-3.8H286V32.5L286,32.5z M288.1,19.6h1.7c1.6,0,2.6,0.6,2.6,2.4c0,1.9-1.6,2.5-3,2.5h-1.2V19.6L288.1,19.6z"/>
	<polygon points="299,32.5 301.4,32.5 304.9,21.1 305,21.1 308.6,32.5 310.9,32.5 313.6,17.9 311.6,17.9 309.5,29.6 309.5,29.6 
		305.9,17.9 304,17.9 300.4,29.6 300.4,29.6 298.2,17.9 296.3,17.9 299,32.5 	"/>
	<polygon points="321.6,28 327.4,28 327.4,26.8 321.6,26.8 321.6,28 	"/>
	<path d="M335.6,32.5h2.6c3.8,0,6.6-1.3,6.6-7.3c0-5.6-2.6-7.3-6-7.3h-3.2V32.5L335.6,32.5z M336.8,19.1h1c3.3,0,5.6,0.7,5.6,6.1
		c0,5.3-2,6.2-5.3,6.2h-1.2V19.1L336.8,19.1z"/>
	<path d="M347.7,32.5h1.1V22.5h-1.1V32.5L347.7,32.5z M347.4,19.7h1.6v-1.7h-1.6V19.7L347.4,19.7z"/>
	<path d="M358.5,31.5c-0.5,0.2-1.3,0.3-1.8,0.3c-3.8,0-3.9-3.6-3.9-4.3c0-0.3,0-0.7,0-1l5.9,0v-0.5c0-1.7-0.9-3.6-3.4-3.6
		c-2.5,0-3.8,1.7-3.8,5c0,3.5,1.7,5.5,4.8,5.5c0.8,0,1.6-0.1,2.2-0.3V31.5L358.5,31.5L358.5,31.5z M352.9,25.4
		c0.1-0.7,0.5-2.1,2.4-2.1c1.7,0,2.1,1.5,2.1,2.1H352.9L352.9,25.4L352.9,25.4z"/>
	<polygon points="366.6,32.5 367.8,32.5 367.8,17.9 366.6,17.9 366.6,32.5 	"/>
	<path d="M371.5,32.5h1.1v-3.9c0-2.8,1.4-5.4,3.2-5.4c1.8,0,1.8,1.9,1.8,2.9v6.3h1.1v-7.4c0-2.5-2.1-2.9-2.6-2.9
		c-2.4,0-3,1.7-3.3,2.7l0,0v-2.5h-1.1V32.5L371.5,32.5z"/>
	<path d="M387.7,32.5h1.1V17.9h-1.1v6.4h0c-0.3-1-1.2-2.1-2.8-2.1c-2.7,0-3.6,2.8-3.6,5.3c0,3.2,1,5.2,3.5,5.2
		c1.9,0,2.6-1.3,2.9-2.1h0V32.5L387.7,32.5z M382.6,27.6c0-1.7,0.6-4.3,2.4-4.3c2,0,2.8,2.3,2.8,4.3c0,1.7-0.9,4.2-2.8,4.2
		C382.8,31.8,382.6,29.4,382.6,27.6L382.6,27.6L382.6,27.6L382.6,27.6z"/>
	<path d="M398.3,32.5h1.1V22.5h-1.1v3.9c0,2.8-1.4,5.4-3.2,5.4c-1.8,0-1.8-1.9-1.8-2.9l0-6.3h-1.1v7.4c0,2.5,2.1,2.9,2.6,2.9
		c2.4,0,3-1.7,3.4-2.7h0V32.5L398.3,32.5z"/>
	<path d="M405.1,26.5c-0.8-0.4-1.9-0.8-1.9-1.8c0-0.8,0.7-1.4,2.1-1.4c1.1,0,2,0.3,2.4,0.4v-1.1c-0.4-0.1-1.3-0.3-2.5-0.3
		c-2.4,0-3.3,1.1-3.3,2.7c0,1.6,1.5,2.1,2.5,2.6l0.8,0.4c0.6,0.3,1.8,0.7,1.8,1.9c0,1.1-0.8,1.9-2.6,1.9c-1.1,0-2.3-0.4-2.6-0.5v1.1
		c0.5,0.2,1.7,0.4,2.6,0.4c3.1,0,3.8-1.6,3.8-3c0-1.8-1.3-2.3-2.4-2.8L405.1,26.5L405.1,26.5L405.1,26.5z"/>
	<path d="M415.1,31.6c-0.3,0.1-0.4,0.2-1,0.2c-1.7,0-1.7-1.2-1.7-1.9v-6.4h2.7v-1h-2.7v-3l-1.1,0.7v2.3h-1.6v1h1.6v6.8
		c0,0.8,0,2.5,2.7,2.5c0.4,0,0.7,0,1.1-0.1V31.6L415.1,31.6L415.1,31.6z"/>
	<path d="M417.4,32.5h1.1v-4.1c0-2,0.5-5.1,3.2-5.1v-1.1c-1.9,0-2.7,1-3.2,2.3h0v-2.1h-1.1V32.5L417.4,32.5z"/>
	<path d="M424,32.5h1.1V22.5H424V32.5L424,32.5z M423.8,19.7h1.6v-1.7h-1.6V19.7L423.8,19.7z"/>
	<path d="M434.9,31.5c-0.5,0.2-1.3,0.3-1.8,0.3c-3.9,0-3.9-3.6-3.9-4.3c0-0.3,0-0.7,0-1l5.9,0v-0.5c0-1.7-0.9-3.6-3.4-3.6
		c-2.5,0-3.8,1.7-3.8,5c0,3.5,1.7,5.5,4.8,5.5c0.8,0,1.6-0.1,2.2-0.3V31.5L434.9,31.5L434.9,31.5z M429.3,25.4
		c0.1-0.7,0.5-2.1,2.4-2.1c1.7,0,2.1,1.5,2.1,2.1H429.3L429.3,25.4L429.3,25.4z"/>
	<polygon points="437.2,28 443,28 443,26.8 437.2,26.8 437.2,28 	"/>
	<path d="M457.1,32.5h1.1V22.5h-1.1v3.9c0,2.8-1.4,5.4-3.2,5.4c-1.8,0-1.8-1.9-1.8-2.9v-6.3H451v7.4c0,2.5,2.1,2.9,2.6,2.9
		c2.4,0,3-1.7,3.4-2.7h0V32.5L457.1,32.5z"/>
	<path d="M461.6,32.5h1.1v-3.9c0-2.8,1.4-5.4,3.2-5.4c1.8,0,1.8,1.9,1.8,2.9v6.3h1.1v-7.4c0-2.5-2.1-2.9-2.6-2.9
		c-2.4,0-3,1.7-3.3,2.7l0,0v-2.5h-1.1V32.5L461.6,32.5z"/>
	<path d="M477.8,32.5h1.1V17.9h-1.1v6.4h0c-0.3-1-1.2-2.1-2.7-2.1c-2.7,0-3.6,2.8-3.6,5.3c0,3.2,1,5.2,3.5,5.2
		c1.9,0,2.6-1.3,2.9-2.1h0V32.5L477.8,32.5z M472.7,27.6c0-1.7,0.5-4.3,2.4-4.3c2,0,2.8,2.3,2.8,4.3c0,1.7-0.9,4.2-2.8,4.2
		C472.9,31.8,472.7,29.4,472.7,27.6L472.7,27.6L472.7,27.6L472.7,27.6z"/>
	<polygon points="487.6,32.5 488.8,32.5 488.8,25.6 495.1,25.6 495.1,32.5 496.4,32.5 496.4,17.9 495.1,17.9 495.1,24.4 488.8,24.4 
		488.8,17.9 487.6,17.9 487.6,32.5 	"/>
	<path d="M504.9,32.5h1.1v-6.9c0-1.4,0-3.4-3.2-3.4c-2.7,0-3.5,1.6-3.5,2.6h1.3c0.2-0.8,0.5-1.6,2.1-1.6c0.8,0,1.8,0.3,2.1,1.5
		c0.1,0.4,0.1,1.6,0.1,2.1c-1.2,0-5.7,0-5.7,3.2c0,1.1,0.6,2.7,2.6,2.7c1.8,0,2.8-1.1,3.1-1.7h0V32.5L504.9,32.5z M504.9,27.9
		c0,1.2-0.1,1.7-0.5,2.2c-0.5,0.8-1.4,1.4-2.5,1.4c-0.8,0-1.5-0.5-1.5-1.4c0-1.5,1.5-2.3,3.4-2.3H504.9L504.9,27.9L504.9,27.9z"/>
	<path d="M509.4,32.5h1.1v-3.9c0-2.8,1.4-5.4,3.2-5.4c1.8,0,1.8,1.9,1.8,2.9v6.3h1.1v-7.4c0-2.5-2.1-2.9-2.6-2.9
		c-2.4,0-3,1.7-3.3,2.7l0,0v-2.5h-1.1V32.5L509.4,32.5z"/>
	<path d="M525.6,32.5h1.1V17.9h-1.1v6.4h0c-0.3-1-1.2-2.1-2.8-2.1c-2.7,0-3.6,2.8-3.6,5.3c0,3.2,1,5.2,3.5,5.2
		c1.9,0,2.6-1.3,2.9-2.1h0V32.5L525.6,32.5z M520.5,27.6c0-1.7,0.6-4.3,2.4-4.3c2,0,2.7,2.3,2.7,4.3c0,1.7-0.9,4.2-2.8,4.2
		C520.7,31.8,520.5,29.4,520.5,27.6L520.5,27.6L520.5,27.6L520.5,27.6z"/>
	<path d="M536.3,31.5c-0.5,0.2-1.3,0.3-1.8,0.3c-3.8,0-3.9-3.6-3.9-4.3c0-0.3,0-0.7,0-1l5.9,0v-0.5c0-1.7-0.9-3.6-3.4-3.6
		c-2.5,0-3.8,1.7-3.8,5c0,3.5,1.7,5.5,4.8,5.5c0.8,0,1.6-0.1,2.2-0.3V31.5L536.3,31.5L536.3,31.5z M530.8,25.4
		c0.1-0.7,0.5-2.1,2.4-2.1c1.7,0,2.1,1.5,2.1,2.1H530.8L530.8,25.4L530.8,25.4z"/>
	<polygon points="539.2,32.5 540.3,32.5 540.3,17.9 539.2,17.9 539.2,32.5 	"/>
	<path d="M546.2,26.5c-0.8-0.4-1.9-0.8-1.9-1.8c0-0.8,0.7-1.4,2.1-1.4c1.1,0,2,0.3,2.4,0.4v-1.1c-0.4-0.1-1.3-0.3-2.5-0.3
		c-2.4,0-3.3,1.1-3.3,2.7c0,1.6,1.5,2.1,2.5,2.6l0.8,0.4c0.6,0.3,1.8,0.7,1.8,1.9c0,1.1-0.8,1.9-2.6,1.9c-1.1,0-2.3-0.4-2.6-0.5v1.1
		c0.5,0.2,1.7,0.4,2.6,0.4c3.1,0,3.8-1.6,3.8-3c0-1.8-1.3-2.3-2.4-2.8L546.2,26.5L546.2,26.5L546.2,26.5z"/>
	<polygon points="551.7,32.5 552.8,32.5 552.8,27 552.8,27 557,32.5 558.3,32.5 554.1,27 557.9,22.5 556.5,22.5 552.8,26.9 
		552.8,17.9 551.7,17.9 551.7,32.5 	"/>
	<path d="M565.2,32.5h1.1v-6.9c0-1.4,0-3.4-3.2-3.4c-2.7,0-3.5,1.6-3.5,2.6h1.3c0.2-0.8,0.5-1.6,2.1-1.6c0.8,0,1.8,0.3,2.1,1.5
		c0.1,0.4,0.1,1.6,0.1,2.1c-1.2,0-5.7,0-5.7,3.2c0,1.1,0.6,2.7,2.6,2.7c1.8,0,2.8-1.1,3.1-1.7h0V32.5L565.2,32.5z M565.2,27.9
		c0,1.2-0.1,1.7-0.5,2.2c-0.5,0.8-1.4,1.4-2.5,1.4c-0.8,0-1.5-0.5-1.5-1.4c0-1.5,1.5-2.3,3.4-2.3H565.2L565.2,27.9L565.2,27.9z"/>
	<path d="M569.7,32.5h1.1v-3.9c0-2.8,1.4-5.4,3.2-5.4c1.3,0,1.3,1.9,1.3,2.9v6.3h1.1v-4c0-2.6,1.2-5.2,2.9-5.2
		c1.6,0,1.6,1.9,1.6,2.9l0,6.3h1.1v-7.4c0-2.5-1.5-2.9-2.6-2.9c-1.8,0-2.6,1.6-2.9,2.5h0c0-0.9-0.4-2.5-2.4-2.5
		c-2.3,0-2.9,1.7-3.2,2.7l0,0v-2.5h-1.1V32.5L569.7,32.5z"/>
	<path d="M585.4,32.5h1.1v-3.9c0-2.8,1.4-5.4,3.2-5.4c1.3,0,1.3,1.9,1.3,2.9v6.3h1.1v-4c0-2.6,1.2-5.2,2.9-5.2
		c1.6,0,1.6,1.9,1.6,2.9l0,6.3h1.1v-7.4c0-2.5-1.5-2.9-2.6-2.9c-1.8,0-2.6,1.6-2.9,2.5h0c0-0.9-0.4-2.5-2.4-2.5
		c-2.3,0-2.9,1.7-3.2,2.7l0,0v-2.5h-1.1V32.5L585.4,32.5z"/>
	<path d="M607.2,31.5c-0.5,0.2-1.3,0.3-1.8,0.3c-3.8,0-3.9-3.6-3.9-4.3c0-0.3,0-0.7,0-1l5.9,0v-0.5c0-1.7-0.9-3.6-3.4-3.6
		c-2.5,0-3.8,1.7-3.8,5c0,3.5,1.7,5.5,4.8,5.5c0.8,0,1.6-0.1,2.2-0.3V31.5L607.2,31.5L607.2,31.5z M601.7,25.4
		c0.1-0.7,0.5-2.1,2.4-2.1c1.7,0,2.1,1.5,2.1,2.1H601.7L601.7,25.4L601.7,25.4z"/>
	<path d="M610.1,32.5h1.1v-4.1c0-2,0.5-5.1,3.2-5.1v-1.1c-1.9,0-2.8,1-3.2,2.3h0v-2.1h-1.1V32.5L610.1,32.5z"/>
	<path d="M616.7,32.5h1.1v-3.9c0-2.8,1.4-5.4,3.2-5.4c1.8,0,1.8,1.9,1.8,2.9v6.3h1.1v-7.4c0-2.5-2.1-2.9-2.6-2.9
		c-2.4,0-3,1.7-3.3,2.7l0,0v-2.5h-1.1V32.5L616.7,32.5z"/>
	<path d="M235.6,54.4h1.1V44.4h-1.1V54.4L235.6,54.4z M235.4,41.6h1.6v-1.7h-1.6V41.6L235.4,41.6z"/>
	<path d="M240.3,54.4h1.1v-3.9c0-2.8,1.4-5.4,3.2-5.4c1.8,0,1.8,1.9,1.8,2.9v6.3h1.1V47c0-2.5-2.1-2.9-2.6-2.9c-2.4,0-3,1.7-3.3,2.7
		l0,0v-2.5h-1.1V54.4L240.3,54.4z"/>
	<polygon points="256.1,54.4 257.3,54.4 257.3,41.7 257.4,41.7 263.5,54.4 265.3,54.4 265.3,39.9 264,39.9 264,52.9 264,52.9 
		257.8,39.9 256.1,39.9 256.1,54.4 	"/>
	<path d="M272.2,54.7c2.9,0,4.1-2.3,4.1-5.2c0-2.9-1.2-5.3-4.1-5.3c-2.9,0-4.1,2.3-4.1,5.3C268.1,52.4,269.4,54.7,272.2,54.7
		L272.2,54.7L272.2,54.7L272.2,54.7z M269.4,49.6c0-2.3,0.7-4.4,2.8-4.4s2.9,2.1,2.9,4.4c0,2.3-0.7,4.1-2.9,4.1
		S269.4,51.9,269.4,49.6L269.4,49.6L269.4,49.6L269.4,49.6z"/>
	<path d="M279.1,54.4h1.1v-4.1c0-2,0.5-5.1,3.2-5.1v-1.1c-1.9,0-2.8,1-3.2,2.3h0v-2.1h-1.1V54.4L279.1,54.4z"/>
	<path d="M291.3,54.4h1.1V39.9h-1.1v6.4h0c-0.3-1-1.2-2.1-2.8-2.1c-2.7,0-3.6,2.8-3.6,5.3c0,3.2,1,5.2,3.5,5.2
		c1.9,0,2.6-1.3,2.9-2.1l0,0V54.4L291.3,54.4z M286.2,49.5c0-1.7,0.5-4.3,2.4-4.3c2,0,2.8,2.3,2.8,4.3c0,1.7-0.9,4.2-2.8,4.2
		C286.5,53.7,286.2,51.3,286.2,49.5L286.2,49.5L286.2,49.5L286.2,49.5z"/>
	<path d="M295.9,54.4h1.1v-4.1c0-2,0.5-5.1,3.2-5.1l0-1.1c-1.9,0-2.8,1-3.2,2.3h0v-2.1h-1.1V54.4L295.9,54.4z"/>
	<path d="M302.6,54.4h1.1v-3.9c0-2.8,1.4-5.4,3.2-5.4c1.8,0,1.8,1.9,1.8,2.9v6.3h1.1V47c0-2.5-2.1-2.9-2.6-2.9c-2.4,0-3,1.7-3.3,2.7
		l0,0v-7h-1.1V54.4L302.6,54.4z"/>
	<path d="M319.3,53.4c-0.5,0.2-1.3,0.3-1.8,0.3c-3.9,0-3.9-3.6-3.9-4.3c0-0.3,0-0.7,0-1h5.9v-0.5c0-1.7-0.9-3.6-3.4-3.6
		c-2.5,0-3.8,1.7-3.8,5c0,3.5,1.7,5.5,4.8,5.5c0.8,0,1.6-0.1,2.2-0.3V53.4L319.3,53.4L319.3,53.4z M313.7,47.3
		c0.1-0.7,0.5-2.1,2.4-2.1c1.7,0,2.1,1.5,2.1,2.1H313.7L313.7,47.3L313.7,47.3z"/>
	<path d="M322.2,54.4h1.1V44.4h-1.1V54.4L322.2,54.4z M321.9,41.6h1.6v-1.7h-1.6V41.6L321.9,41.6z"/>
	<path d="M326.8,54.4h1.1v-3.9c0-2.8,1.4-5.4,3.2-5.4c1.8,0,1.8,1.9,1.8,2.9v6.3h1.1V47c0-2.5-2.1-2.9-2.6-2.9c-2.4,0-3,1.7-3.3,2.7
		l0,0v-2.5h-1.1V54.4L326.8,54.4z"/>
	<polygon points="336.9,49.9 342.7,49.9 342.7,48.7 336.9,48.7 336.9,49.9 	"/>
	<polygon points="347.3,54.4 349,54.4 352.3,41.3 352.3,41.3 355.6,54.4 357.4,54.4 359.9,39.9 358.6,39.9 356.4,53.2 356.4,53.2 
		353.1,39.9 351.5,39.9 348.2,53.2 348.2,53.2 346,39.9 344.8,39.9 347.3,54.4 	"/>
	<path d="M368.6,53.4c-0.5,0.2-1.3,0.3-1.8,0.3c-3.9,0-3.9-3.6-3.9-4.3c0-0.3,0-0.7,0-1h5.9v-0.5c0-1.7-0.9-3.6-3.4-3.6
		c-2.5,0-3.8,1.7-3.8,5c0,3.5,1.7,5.5,4.8,5.5c0.8,0,1.6-0.1,2.2-0.3V53.4L368.6,53.4L368.6,53.4z M363.1,47.3
		c0.1-0.7,0.5-2.1,2.4-2.1c1.7,0,2.1,1.5,2.1,2.1H363.1L363.1,47.3L363.1,47.3z"/>
	<path d="M373.8,48.4c-0.8-0.4-1.9-0.8-1.9-1.8c0-0.8,0.7-1.4,2.1-1.4c1.1,0,2,0.3,2.4,0.4v-1.1c-0.4-0.1-1.3-0.3-2.5-0.3
		c-2.4,0-3.3,1.1-3.3,2.7c0,1.6,1.5,2.1,2.5,2.6l0.8,0.4c0.6,0.3,1.8,0.7,1.8,1.9c0,1.1-0.8,1.9-2.6,1.9c-1.1,0-2.3-0.4-2.6-0.5v1.1
		c0.5,0.2,1.7,0.4,2.6,0.4c3.1,0,3.9-1.6,3.9-3c0-1.8-1.3-2.3-2.4-2.8L373.8,48.4L373.8,48.4L373.8,48.4z"/>
	<path d="M383.7,53.5c-0.3,0.1-0.4,0.2-1,0.2c-1.6,0-1.6-1.2-1.6-1.9v-6.4h2.7v-1h-2.7v-3l-1.1,0.7v2.3h-1.6v1h1.6v6.8
		c0,0.8,0,2.5,2.7,2.5c0.4,0,0.7,0,1.1-0.1V53.5L383.7,53.5L383.7,53.5z"/>
	<path d="M386.8,54.4h1.1v-9.1h2.9v-1h-2.9v-1.3c0-1.8,0.7-2.3,2.3-2.3c0.5,0,0.8,0.1,1.2,0.2V40c-0.3-0.1-0.7-0.2-1.5-0.2
		c-1.6,0-3,0.9-3,3v1.6H385v1h1.7V54.4L386.8,54.4z"/>
	<path d="M397.5,54.4h1.1v-6.9c0-1.4,0-3.4-3.2-3.4c-2.7,0-3.5,1.6-3.5,2.6h1.3c0.2-0.8,0.5-1.6,2.1-1.6c0.8,0,1.8,0.3,2.1,1.5
		c0.1,0.4,0.1,1.6,0.1,2.1c-1.2,0-5.7,0-5.7,3.2c0,1.1,0.6,2.7,2.6,2.7c1.8,0,2.8-1.1,3.1-1.6h0V54.4L397.5,54.4z M397.5,49.8
		c0,1.2-0.1,1.7-0.5,2.2c-0.5,0.8-1.4,1.4-2.5,1.4c-0.8,0-1.5-0.5-1.5-1.4c0-1.5,1.5-2.3,3.4-2.3H397.5L397.5,49.8L397.5,49.8z"/>
	<polygon points="402.1,54.4 403.2,54.4 403.2,39.9 402.1,39.9 402.1,54.4 	"/>
	<path d="M412.9,53.4c-0.5,0.2-1.3,0.3-1.8,0.3c-3.8,0-3.9-3.6-3.9-4.3c0-0.3,0-0.7,0-1h5.9v-0.5c0-1.7-0.9-3.6-3.4-3.6
		c-2.5,0-3.8,1.7-3.8,5c0,3.5,1.7,5.5,4.8,5.5c0.8,0,1.6-0.1,2.2-0.3V53.4L412.9,53.4L412.9,53.4z M407.3,47.3
		c0.1-0.7,0.5-2.1,2.4-2.1c1.7,0,2.1,1.5,2.1,2.1H407.3L407.3,47.3L407.3,47.3z"/>
	<path d="M415.8,54.4h1.1v-3.9c0-2.8,1.4-5.4,3.2-5.4c1.8,0,1.8,1.9,1.8,2.9v6.3h1.1V47c0-2.5-2.1-2.9-2.6-2.9c-2.4,0-3,1.7-3.3,2.7
		l0,0v-2.5h-1.1V54.4L415.8,54.4z"/>
</g>
</svg>
